<svg xmlns="http://www.w3.org/2000/svg" viewBox="0 0 1000 1000"><defs><style>.cls-1,.cls-2,.cls-3{fill:#fff;}.cls-1{opacity:0.5;}.cls-2{opacity:0.6;}</style></defs><g id="Grafik"><path class="cls-1" d="M287.28,677.53a3.49,3.49,0,0,1-3.5-3.5V199.61a3.5,3.5,0,0,1,7,0V674A3.5,3.5,0,0,1,287.28,677.53Z"/><path class="cls-1" d="M480.56,677.53a3.5,3.5,0,0,1-3.5-3.5V199.61a3.5,3.5,0,0,1,7,0V674A3.49,3.49,0,0,1,480.56,677.53Z"/><path class="cls-1" d="M673.85,512.85a3.5,3.5,0,0,1-3.5-3.5V199.61a3.5,3.5,0,0,1,7,0V509.35A3.5,3.5,0,0,1,673.85,512.85Z"/><rect class="cls-2" x="128.57" y="300.71" width="127.68" height="70" rx="12.23"/><rect class="cls-1" x="128.57" y="401.82" width="127.68" height="70" rx="12.23"/><rect class="cls-2" x="320.08" y="199.61" width="127.68" height="70" rx="12.23"/><rect class="cls-1" x="320.08" y="300.71" width="127.68" height="70" rx="12.23"/><rect class="cls-1" x="320.08" y="502.93" width="127.68" height="70" rx="12.23"/><rect class="cls-3" x="125.07" y="196.11" width="134.68" height="77" rx="15.73"/><rect class="cls-3" x="316.58" y="398.32" width="134.68" height="77" rx="15.73"/><rect class="cls-3" x="508.08" y="196.11" width="134.68" height="77" rx="15.73"/><rect class="cls-2" x="511.58" y="300.71" width="127.68" height="70" rx="12.23"/><rect class="cls-2" x="703.09" y="199.61" width="127.68" height="70" rx="12.23"/><rect class="cls-1" x="703.09" y="300.71" width="127.68" height="70" rx="12.23"/><path class="cls-3" d="M748.87,544.62c-106.47,0-193.09,86.62-193.09,193.09S642.4,930.79,748.87,930.79,942,844.18,942,737.71,855.33,544.62,748.87,544.62Zm0,376.17c-101,0-183.09-82.13-183.09-183.08s82.13-183.09,183.09-183.09S932,636.76,932,737.71,849.82,920.79,748.87,920.79Z"/><path class="cls-3" d="M832.21,754.79v22.8H799.58a65.74,65.74,0,0,0,7.12-14.35,58.17,58.17,0,0,0,3.43-24.82,62.7,62.7,0,0,0-6.32-27.49,68,68,0,0,0-15.15-20.11,64.66,64.66,0,0,0-49.36-17.75,26.64,26.64,0,0,1-3.78-6.19,23.93,23.93,0,0,1-1.19-8,20.75,20.75,0,0,1,1.85-8.75,23,23,0,0,1,12.43-11.55,24.23,24.23,0,0,1,8.06-1.08,21.55,21.55,0,0,1,15.49,6.68,19.84,19.84,0,0,1,4.92,7.32l-12.68,4.71,28,12.93,12.72-27.51-12.59,4.51A41.33,41.33,0,0,0,783.9,633a37.44,37.44,0,0,0-27.13-11.58,36.33,36.33,0,0,0-13.87,2,36.78,36.78,0,0,0-13.44,8.45,38,38,0,0,0-8.18,11.35,35,35,0,0,0-3.18,15.35,32.31,32.31,0,0,0,2.2,13.74,33.25,33.25,0,0,0,1.48,3.4c-11.74,3.34-22,9.77-31,19.24a74.31,74.31,0,0,0-15,23.91l-22.83-7.64,23.94,49,49.85-24.34-23-8a35.64,35.64,0,0,1,8.57-13.36A38.76,38.76,0,0,1,739.91,702a44.15,44.15,0,0,1,14.56,1.62,41.28,41.28,0,0,1,22.8,20.31,37.51,37.51,0,0,1,3.66,15.69A42.91,42.91,0,0,1,779.1,754a46.18,46.18,0,0,1-8.77,13.89,40.08,40.08,0,0,1-13.83,9.69H637.28v34.33H832.21v22.81l46.25-40Z"/><path class="cls-3" d="M394.58,86.37h172a5,5,0,0,0,0-10h-172a5,5,0,0,0,0,10Z"/><path class="cls-3" d="M510.5,732.71H99V144.4H862.14V546.89a5,5,0,0,0,10,0V144.4h40.42a5,5,0,0,0,5-5V102.17a5,5,0,0,0-5-5h-864a5,5,0,0,0-5,5V139.4a5,5,0,0,0,5,5H89V737.71a5,5,0,0,0,5,5H510.5a5,5,0,0,0,0-10Z"/></g></svg>