<svg xmlns="http://www.w3.org/2000/svg" viewBox="0 0 1000 1000"><defs><style>.cls-1{fill:#66cb92;}.cls-2{fill:#0070ba;}</style></defs><g id="Grafik"><path class="cls-1" d="M39,159.65a10,10,0,0,1-10-10V68.93A40,40,0,0,1,68.93,29h80.72a10,10,0,0,1,0,20H68.93A20,20,0,0,0,49,68.93v80.72A10,10,0,0,1,39,159.65Z"/><path class="cls-1" d="M149.65,971H68.93A40,40,0,0,1,29,931.07V850.35a10,10,0,0,1,20,0v80.72A20,20,0,0,0,68.93,951h80.72a10,10,0,1,1,0,20Z"/><path class="cls-1" d="M931.07,971H850.35a10,10,0,0,1,0-20h80.72A20,20,0,0,0,951,931.07V850.35a10,10,0,0,1,20,0v80.72A40,40,0,0,1,931.07,971Z"/><path class="cls-1" d="M961,159.65a10,10,0,0,1-10-10V68.93A20,20,0,0,0,931.07,49H850.35a10,10,0,1,1,0-20h80.72A40,40,0,0,1,971,68.93v80.72A10,10,0,0,1,961,159.65Z"/><path class="cls-2" d="M831.9,563.55H761.08l-26.75-26.74a5,5,0,0,0-7.07,7.07l28.21,28.21a5,5,0,0,0,3.53,1.46h72.9a5,5,0,0,0,0-10Z"/><path class="cls-2" d="M767.3,692.45H696.48L669.73,665.7a5,5,0,1,0-7.07,7.07L690.87,701a5,5,0,0,0,3.54,1.47H767.3a5,5,0,0,0,0-10Z"/><path class="cls-2" d="M530.33,709.65a5,5,0,0,0-7.07,7.07l44.36,44.36V831.9a5,5,0,0,0,10,0V759a5,5,0,0,0-1.47-3.53Z"/><path class="cls-2" d="M456.12,272.74a5,5,0,0,0,7.07-7.07l-26.74-26.75V168.1a5,5,0,1,0-10,0V241a5,5,0,0,0,1.46,3.53Z"/><path class="cls-2" d="M330.77,338.8a5,5,0,0,0,3.53-8.53l-26.75-26.75V232.7a5,5,0,0,0-10,0v72.89a5,5,0,0,0,1.47,3.54l28.21,28.21A5,5,0,0,0,330.77,338.8Z"/><path class="cls-2" d="M244.53,423.85a5,5,0,0,0-3.53-1.47H168.1a5,5,0,0,0,0,10h70.82l44.36,44.36a5,5,0,1,0,7.07-7.07Z"/><path class="cls-2" d="M700.17,531a160.58,160.58,0,0,0-15.54-79.95,5.26,5.26,0,0,0-.81-1.18l9.77-9.77a52.58,52.58,0,0,0,0-74.36l-.28-.28,5.53-5.53a37.61,37.61,0,0,0,0-53.15l-5.64-5.64a37.61,37.61,0,0,0-53.15,0l-5.53,5.53-.28-.28a52.58,52.58,0,0,0-74.36,0l-9.77,9.77a5.26,5.26,0,0,0-1.18-.81A160.58,160.58,0,0,0,469,299.83a164.19,164.19,0,0,0-128.7,77.43,160.62,160.62,0,0,0-23.72,77.91L310.4,592.8a31.44,31.44,0,0,0,19.07,30.73,32.67,32.67,0,0,0,13.15,2.82A31.47,31.47,0,0,0,365,616.87l44.7-44.7A17.48,17.48,0,0,0,415,585.49a17.73,17.73,0,0,0,12.66,5L383.13,635a32,32,0,0,0,22.52,54.64l1.55,0,137.63-6.16a160.62,160.62,0,0,0,77.91-23.72A164.19,164.19,0,0,0,700.17,531ZM357.94,609.8a22,22,0,0,1-37.55-16.55l6.16-137.63A152.68,152.68,0,0,1,543.86,324l38.79,38.78a15.76,15.76,0,0,1,0,22.28Zm186.44,63.65-137.63,6.16a22,22,0,0,1-16.55-37.55L614.9,417.35a15.76,15.76,0,0,1,22.28,0L676,456.14A152.78,152.78,0,0,1,544.38,673.45Z"/><path class="cls-2" d="M661.77,271a3.51,3.51,0,0,0,2.48-6,37.7,37.7,0,0,1,0-53.35,3.5,3.5,0,0,0-5-4.95,44.7,44.7,0,0,0,0,63.25A3.46,3.46,0,0,0,661.77,271Z"/><path class="cls-2" d="M761.67,353.81a44.42,44.42,0,0,0,31.62-13.11,3.5,3.5,0,1,0-4.95-4.95,37.7,37.7,0,0,1-53.35,0,3.5,3.5,0,0,0-5,4.95A44.42,44.42,0,0,0,761.67,353.81Z"/></g></svg>