<svg xmlns="http://www.w3.org/2000/svg" viewBox="0 0 1000 1000"><defs><style>.cls-1,.cls-2,.cls-3{fill:#fff;}.cls-1{opacity:0.5;}.cls-3{opacity:0.6;}</style></defs><g id="Grafik"><path class="cls-1" d="M513.32,127.75a3.24,3.24,0,0,1-.87-.11c-3.17-.81-6.41-1.59-9.63-2.32a3.5,3.5,0,1,1,1.55-6.82c3.27.74,6.58,1.53,9.81,2.36a3.5,3.5,0,0,1-.86,6.89Z"/><path class="cls-1" d="M764.74,346.08a3.5,3.5,0,0,1-3.24-2.16c-2.4-5.82-5-11.66-7.7-17.36a3.5,3.5,0,0,1,6.32-3c2.76,5.8,5.4,11.75,7.85,17.69a3.5,3.5,0,0,1-1.9,4.57A3.46,3.46,0,0,1,764.74,346.08Zm-16.45-34.62a3.47,3.47,0,0,1-3.08-1.84c-3-5.54-6.18-11.08-9.46-16.47a3.5,3.5,0,1,1,6-3.64c3.34,5.49,6.58,11.14,9.64,16.79A3.51,3.51,0,0,1,750,311,3.44,3.44,0,0,1,748.29,311.46Zm-19.94-32.74a3.49,3.49,0,0,1-2.89-1.53c-3.56-5.21-7.3-10.4-11.11-15.41a3.5,3.5,0,1,1,5.57-4.24c3.89,5.11,7.69,10.39,11.32,15.71a3.5,3.5,0,0,1-2.89,5.47Zm-23.2-30.52a3.49,3.49,0,0,1-2.68-1.24c-4.07-4.82-8.32-9.6-12.63-14.2A3.5,3.5,0,0,1,695,228c4.39,4.68,8.72,9.55,12.87,14.46a3.49,3.49,0,0,1-.42,4.93A3.45,3.45,0,0,1,705.15,248.2Zm-26.21-28a3.46,3.46,0,0,1-2.43-1c-4.54-4.37-9.26-8.69-14-12.82a3.5,3.5,0,1,1,4.6-5.28c4.84,4.21,9.65,8.61,14.27,13.06a3.5,3.5,0,0,1-2.42,6ZM650,195.06a3.49,3.49,0,0,1-2.16-.74c-5-3.89-10.1-7.7-15.25-11.32a3.5,3.5,0,0,1,4-5.73c5.26,3.69,10.49,7.57,15.55,11.54a3.5,3.5,0,0,1-2.16,6.25ZM618.63,173a3.43,3.43,0,0,1-1.86-.54c-5.34-3.35-10.84-6.62-16.34-9.69a3.5,3.5,0,0,1,3.41-6.11c5.61,3.13,11.21,6.46,16.65,9.88a3.5,3.5,0,0,1-1.86,6.46ZM585.16,154.3a3.45,3.45,0,0,1-1.55-.36c-5.66-2.79-11.47-5.46-17.25-7.95a3.5,3.5,0,1,1,2.76-6.43c5.9,2.53,11.81,5.26,17.59,8.1a3.5,3.5,0,0,1-1.55,6.64Zm-35.23-15.14a3.46,3.46,0,0,1-1.22-.22c-5.91-2.18-12-4.24-18-6.12a3.5,3.5,0,0,1,2.08-6.68c6.14,1.91,12.3,4,18.33,6.24a3.5,3.5,0,0,1-1.21,6.78Z"/><path class="cls-1" d="M774.81,373.49a3.49,3.49,0,0,1-3.33-2.43c-1-3.12-2.08-6.27-3.17-9.38a3.5,3.5,0,1,1,6.6-2.33c1.11,3.16,2.2,6.38,3.23,9.56a3.51,3.51,0,0,1-2.25,4.41A3.69,3.69,0,0,1,774.81,373.49Z"/><path class="cls-1" d="M115,277a3.5,3.5,0,0,1-2.88-5.49c1.9-2.75,3.86-5.52,5.84-8.23a3.5,3.5,0,0,1,5.66,4.13c-2,2.66-3.88,5.38-5.74,8.08A3.5,3.5,0,0,1,115,277Z"/><path class="cls-1" d="M134.6,251.08a3.51,3.51,0,0,1-2.69-5.74c4.8-5.8,9.85-11.54,15-17.06a3.5,3.5,0,1,1,5.11,4.78c-5.06,5.41-10,11.05-14.73,16.75A3.51,3.51,0,0,1,134.6,251.08Zm30.74-32.89a3.5,3.5,0,0,1-2.41-6c5.48-5.19,11.18-10.29,16.95-15.14a3.5,3.5,0,0,1,4.5,5.36c-5.66,4.76-11.26,9.76-16.63,14.86A3.52,3.52,0,0,1,165.34,218.19Zm34.46-28.95a3.5,3.5,0,0,1-2.09-6.31c6.06-4.5,12.34-8.87,18.66-13a3.5,3.5,0,0,1,3.82,5.86c-6.2,4-12.36,8.33-18.3,12.75A3.54,3.54,0,0,1,199.8,189.24Z"/><path class="cls-1" d="M237.51,164.64a3.5,3.5,0,0,1-1.74-6.54c2.92-1.66,5.9-3.3,8.84-4.87a3.5,3.5,0,1,1,3.3,6.17c-2.89,1.55-5.81,3.15-8.67,4.78A3.43,3.43,0,0,1,237.51,164.64Z"/><path class="cls-1" d="M959.41,247a3.5,3.5,0,0,1-3.43-2.83c-.63-3.23-1.32-6.49-2-9.69a3.5,3.5,0,0,1,6.83-1.53c.74,3.26,1.43,6.58,2.08,9.88a3.51,3.51,0,0,1-2.76,4.11A3.91,3.91,0,0,1,959.41,247Z"/><path class="cls-1" d="M740,661.09a3.5,3.5,0,0,1-1.38-6.72c5.9-2.51,11.8-5.2,17.55-8a3.5,3.5,0,1,1,3.08,6.29c-5.86,2.87-11.88,5.62-17.89,8.17A3.45,3.45,0,0,1,740,661.09ZM775,644a3.5,3.5,0,0,1-1.7-6.56c5.6-3.11,11.19-6.41,16.62-9.81a3.5,3.5,0,1,1,3.71,5.93c-5.53,3.47-11.23,6.83-16.93,10A3.48,3.48,0,0,1,775,644Zm33-20.68a3.5,3.5,0,0,1-2-6.37c5.24-3.67,10.45-7.54,15.51-11.5a3.5,3.5,0,0,1,4.31,5.51c-5.15,4-10.46,8-15.8,11.72A3.47,3.47,0,0,1,808,623.3Zm30.68-24a3.5,3.5,0,0,1-2.3-6.14c4.83-4.2,9.61-8.6,14.23-13.06a3.5,3.5,0,0,1,4.86,5c-4.7,4.55-9.57,9-14.49,13.31A3.48,3.48,0,0,1,838.71,599.27Zm28-27.1a3.5,3.5,0,0,1-2.56-5.88c4.37-4.69,8.68-9.56,12.8-14.47a3.5,3.5,0,1,1,5.36,4.49c-4.2,5-8.58,10-13,14.75A3.5,3.5,0,0,1,866.72,572.17Zm25-29.87a3.49,3.49,0,0,1-2.79-5.6c3.86-5.13,7.63-10.42,11.21-15.73a3.5,3.5,0,1,1,5.81,3.91c-3.65,5.41-7.5,10.8-11.43,16A3.51,3.51,0,0,1,891.77,542.3ZM913.57,510a3.45,3.45,0,0,1-1.8-.5,3.49,3.49,0,0,1-1.2-4.8c3.3-5.5,6.5-11.16,9.51-16.82a3.5,3.5,0,1,1,6.18,3.28c-3.07,5.77-6.33,11.54-9.69,17.14A3.51,3.51,0,0,1,913.57,510Zm18.29-34.44a3.54,3.54,0,0,1-1.48-.33,3.5,3.5,0,0,1-1.69-4.65c2.7-5.82,5.29-11.78,7.69-17.73a3.5,3.5,0,1,1,6.49,2.61c-2.44,6.06-5.08,12.14-7.84,18.07A3.48,3.48,0,0,1,931.86,475.53Zm14.57-36.19a3.67,3.67,0,0,1-1.13-.19,3.5,3.5,0,0,1-2.18-4.45c2.08-6.08,4-12.28,5.77-18.45a3.5,3.5,0,0,1,6.74,1.91c-1.79,6.29-3.77,12.61-5.89,18.81A3.51,3.51,0,0,1,946.43,439.34Zm10.67-37.55a3.44,3.44,0,0,1-.78-.08,3.52,3.52,0,0,1-2.64-4.19c1.43-6.26,2.7-12.63,3.79-18.94a3.5,3.5,0,0,1,6.9,1.2c-1.11,6.42-2.41,12.91-3.86,19.29A3.5,3.5,0,0,1,957.1,401.79Zm6.64-38.4-.42,0a3.5,3.5,0,0,1-3.06-3.89c.76-6.36,1.36-12.83,1.79-19.23a3.5,3.5,0,1,1,7,.47c-.43,6.52-1,13.11-1.82,19.59A3.5,3.5,0,0,1,963.74,363.39Zm2.59-38.88h-.05a3.5,3.5,0,0,1-3.45-3.55c0-1.85,0-3.7,0-5.55,0-4.59-.08-9.22-.25-13.77a3.5,3.5,0,0,1,7-.26c.17,4.63.25,9.35.25,14,0,1.89,0,3.78,0,5.66A3.51,3.51,0,0,1,966.33,324.51Zm-1.44-39a3.5,3.5,0,0,1-3.48-3.19c-.57-6.39-1.31-12.85-2.21-19.18a3.5,3.5,0,0,1,6.93-1c.92,6.46,1.67,13,2.25,19.55a3.49,3.49,0,0,1-3.17,3.8Z"/><path class="cls-1" d="M712.43,671.55a3.5,3.5,0,0,1-1.11-6.82c3.12-1,6.26-2.14,9.35-3.27a3.5,3.5,0,1,1,2.4,6.58c-3.15,1.15-6.36,2.27-9.53,3.33A3.63,3.63,0,0,1,712.43,671.55Z"/><path class="cls-1" d="M330.23,417.13l-.88-.86q-8.22,3.8-16.11,8.19l8.25,4.82Z"/><path class="cls-1" d="M211.93,601.31l18.31,10,4.37,6.19,13.15,5.85,10.69,9.16L249.29,657l30.54,47.34,4.58,103.83,16.8,26L319.54,831,318,821.88h-9.16L308,794.4,351.48,726l20-11,13.75-36.65-3.06-15.26L351.6,650.85l-45.81-35.12-58-1.53-11-15.66-1.38-13.82-8.29-7.25L215.7,588.24,205.37,584l2.69-20.22,33.57-10.51,8.64,15.54,7.25-1-.59-16.21,22.9-27.49,41.23-21.37L314.52,488l9.32-2.42,1.8,8L346,496.3l-6.56-30.74-15.55-31.09h-3.45L315.55,441h-2.76l-.69-10.71-4.74-2.49a241.7,241.7,0,0,0-23.2,15.67l-8.91,11.88.57,15.27-3.62,1.53-4.58-13.74-.7-.47a240.79,240.79,0,0,0-74.55,137.84l8.85,6.52Z"/><polygon class="cls-1" points="286.19 587.83 271.34 583.35 248.2 574.71 238.18 577.13 242.32 581.62 257.87 583.69 279.63 594.05 298.28 595.09 296.56 589.56 286.19 587.83"/><polygon class="cls-1" points="257.18 588.52 256.83 591.63 262.36 595.43 266.5 594.39 262.36 588.87 257.18 588.52"/><polygon class="cls-1" points="324.53 813.05 323.84 818.24 331.44 819.27 333.51 816.51 331.79 812.36 324.53 813.05"/><path class="cls-1" d="M377.78,444.14l11-24.14,12.41-4.14,9-6.9,24.24-14.78c-1.34,0-2.68-.05-4-.05a241.2,241.2,0,0,0-70.27,10.41l5.91,31.33Z"/><polygon class="cls-1" points="455.04 421.38 451.59 413.79 437.79 415.17 435.72 411.03 430.2 413.79 428.14 424.14 442.62 431.03 455.04 421.38"/><polygon class="cls-1" points="616.51 695.09 616.18 703.81 613.28 708.65 613.28 719.3 624.25 723.17 637.49 687.02 631.03 681.21 616.51 695.09"/><path class="cls-1" d="M539.61,441.59l3.61,2.78,15.27-1.11-1.11,4.43-12.21.84-.56,3.05,3,2.22-1.38,1.95-3.34-.56-3.33,6.66,4.44,5.28-1.66,1.38-8.33-2.21-11.38,3.05-6.94.83-3.33-1.11.83-2.77.84-5.28-1.39-2.22-3.61,3.61.83,8.6-8.6,3.06L490.48,486l-8.76,3.76-7,1.49v2.25l6.74,5.24,2.25,12-18.22-.24-1.5,10-1.25,7,1,4.24,5.74,4.5,2,.5,1.24-1.5,9.49-.5,5.24-4.24,1.25-6.24,6.23-5.24,3.75-7,7,1.75,6-6,9.73,9.49,9,5,2,6-9,.75-.25,1.75,7.74,3.24.49-2.74,4.75-3.5-1.5-6.48,3.74,3.24,1-1.5-3.24-3.49-15.17-12,1-3.5,18.16,14,3.33,11,11,10,6.5,3.5,2.5-2-8.5-5.5,1-3.5-3.5-7.49,5.5-1.5L565.42,536l22,2.5-4.5,13-37-5.51-4,7.5-23-10-2.5-10.5L471,538.45l-24,32.48-8.49,33,24.48,31,35.48-7L514,634.4l-2.5,11.49,15,29-8,17.49,21.49,59,22,.5,27-29.48,1.5-12,17-17.49v-26l32.48-44.48-1.5-9.49-23,1-30.49-49.48,6-2L613,598.23l6.43,10.44,27.49-10.31L665.21,580l-12-6.87-4-5.15-5.73,4.58L628.56,557.7l2.29-2.86,13.75,10.88,7.44-2.29,2.86,6.3,7.93.64a240.22,240.22,0,0,0-32.93-70.72l-3.75,4.16,7.12,9.8,1.92,6.15,4.23,11-12.12-2.11,2.31-8.27-11.92-16.15L628,496.84a242.54,242.54,0,0,0-83.32-74l-5.57,8.77Zm32.13,58,4,1.15,6.92,5.77,4.23-1.92-1-4.43,3.85-.57,1.53,6.15,11.35,7.11-1.35,4.42h-29l-8.27-3.65Z"/><path class="cls-1" d="M499.09,437.43l2.22,15.27,6.1,3.32,7.5-5.54,3.61,12.76,5,1.95,7.77-4.16-.28-2.51.56-5.82,3.6-1.39.28-5.28-3.88-2.77-1.11-7.77,6.38-8.89,2.72-6.42q-9-4.59-18.49-8.42l-3.94,9.57Z"/><polygon class="cls-1" points="475.94 469.21 478.21 472.51 474.7 474.79 473.46 483.27 470.56 485.55 472.01 488.24 481.53 485.13 489.38 483.89 492.9 477.27 482.14 462.8 482.35 457.42 476.35 450.8 470.98 457.01 470.36 461.14 474.7 464.25 475.94 469.21"/><polygon class="cls-1" points="471.6 479.34 471.6 472.1 473.67 467.76 469.32 465.07 461.26 471.69 460.64 479.75 461.67 482.86 471.6 479.34"/><polygon class="cls-1" points="512.55 516.57 512.75 513.05 509.65 514.5 509.86 518.01 512.55 516.57"/><polygon class="cls-1" points="511.1 526.9 513.99 527.53 512.96 518.63 509.86 520.49 511.1 526.9"/><path class="cls-2" d="M430.41,892.65a257.23,257.23,0,1,1,181.88-75.34A255.51,255.51,0,0,1,430.41,892.65Zm0-507.44c-138,0-250.22,112.25-250.22,250.22S292.44,885.65,430.41,885.65,680.63,773.4,680.63,635.43,568.38,385.21,430.41,385.21Z"/><path class="cls-2" d="M627.6,832.62a5,5,0,0,0-7.07-7.07A268.87,268.87,0,0,1,240.29,445.31a5,5,0,1,0-7.07-7.07,278.87,278.87,0,0,0,189.69,476v44H395.76v8.69H328.58a7.5,7.5,0,0,0,0,15H532.24a7.5,7.5,0,0,0,0-15H465.06v-8.69H437.91v-44A276.91,276.91,0,0,0,627.6,832.62Z"/><path class="cls-2" d="M122.17,306,79.29,281.2a3.53,3.53,0,0,0-3.5,0L32.91,306a3.48,3.48,0,0,0-1.75,3V358.5a3.48,3.48,0,0,0,1.75,3l42.88,24.76a3.51,3.51,0,0,0,1.75.47,3.56,3.56,0,0,0,1.75-.47l42.88-24.76a3.5,3.5,0,0,0,1.75-3V309A3.5,3.5,0,0,0,122.17,306ZM62.68,320.19a13.56,13.56,0,0,1,13.55-13.56h2.61A13.56,13.56,0,0,1,92.4,320.19v8.52a13.56,13.56,0,0,1-13.56,13.55H76.23a13.55,13.55,0,0,1-13.55-13.55Zm14.86,59L47,361.57a25.19,25.19,0,0,1,23.94-17.39H83.53a25.19,25.19,0,0,1,24,17.69Z"/><path class="cls-2" d="M826.65,416.36,783.77,391.6a3.48,3.48,0,0,0-3.5,0l-42.88,24.76a3.5,3.5,0,0,0-1.75,3V468.9a3.5,3.5,0,0,0,1.75,3l42.88,24.76a3.49,3.49,0,0,0,3.5,0l42.88-24.76a3.5,3.5,0,0,0,1.75-3V419.39A3.5,3.5,0,0,0,826.65,416.36Zm-59.49,14.22A13.56,13.56,0,0,1,780.72,417h2.6a13.56,13.56,0,0,1,13.56,13.55v8.52a13.56,13.56,0,0,1-13.56,13.56h-2.6a13.56,13.56,0,0,1-13.56-13.56Zm14.86,59L751.46,472a25.19,25.19,0,0,1,23.95-17.39H788a25.19,25.19,0,0,1,24,17.69Z"/><path class="cls-3" d="M973.22,139.83l-42.88-24.76a3.53,3.53,0,0,0-3.5,0L884,139.83a3.48,3.48,0,0,0-1.75,3v49.51a3.48,3.48,0,0,0,1.75,3l42.88,24.76a3.51,3.51,0,0,0,1.75.47,3.56,3.56,0,0,0,1.75-.47l42.88-24.76a3.5,3.5,0,0,0,1.75-3V142.86A3.5,3.5,0,0,0,973.22,139.83Zm-59.49,14.23a13.56,13.56,0,0,1,13.55-13.56h2.61a13.56,13.56,0,0,1,13.56,13.56v8.52a13.56,13.56,0,0,1-13.56,13.56h-2.61a13.56,13.56,0,0,1-13.55-13.56Zm14.86,59L898,195.45A25.18,25.18,0,0,1,922,178.05h12.61a25.19,25.19,0,0,1,24,17.69Z"/><path class="cls-3" d="M472.36,68.05,375.25,12a4.92,4.92,0,0,0-4.95,0L273.19,68.05a5,5,0,0,0-2.47,4.29V184.47a5,5,0,0,0,2.47,4.29l97.11,56.06a4.91,4.91,0,0,0,4.95,0l97.11-56.06a5,5,0,0,0,2.47-4.29V72.34A5,5,0,0,0,472.36,68.05ZM338.83,97.44a31,31,0,0,1,31-31h5.95a31,31,0,0,1,31,31V116.9a31,31,0,0,1-31,31H369.8a31,31,0,0,1-31-31Zm33.95,137.37-70.45-40.67a57.52,57.52,0,0,1,55.34-41.89h28.8A57.52,57.52,0,0,1,442,194.83Z"/></g></svg>