<svg xmlns="http://www.w3.org/2000/svg" viewBox="0 0 1000 1000"><defs><style>.cls-1,.cls-2,.cls-3{fill:#fff;}.cls-1{opacity:0.5;}.cls-2{opacity:0.6;}</style></defs><g id="Grafik"><path class="cls-1" d="M397.42,746.58H249.94V432.26H397.42ZM311.23,470.71H285.68v33.55h25.55Zm54.71,0H340.39v33.55h25.55Zm-54.71,51.48H285.68v33.55h25.55Zm54.71,0H340.39v33.55h25.55Zm-54.71,51.49H285.68v33.55h25.55Zm54.71,0H340.39v33.55h25.55Zm-54.71,51.48H285.68v33.55h25.55Zm54.71,0H340.39v33.55h25.55Zm-54.71,51.49H285.68v33.54h25.55Zm54.71,0H340.39v33.54h25.55Z"/><path class="cls-1" d="M104,513.18H42.84a3.5,3.5,0,0,1,0-7H104a3.5,3.5,0,1,1,0,7Z"/><path class="cls-1" d="M115.61,490.58H85.42a3.5,3.5,0,0,1,0-7h30.19a3.5,3.5,0,0,1,0,7Z"/><path class="cls-1" d="M249.94,490.58H138.06a3.5,3.5,0,0,1,0-7H249.94a3.5,3.5,0,0,1,0,7Z"/><path class="cls-1" d="M777.55,404.31H670.71a3.5,3.5,0,0,1,0-7H777.55a3.5,3.5,0,0,1,0,7Z"/><path class="cls-1" d="M811.61,381.56H750.45a3.5,3.5,0,0,1,0-7h61.16a3.5,3.5,0,0,1,0,7Z"/><rect class="cls-1" x="638.19" y="639.57" width="32.52" height="82.23"/><rect class="cls-1" x="772.52" y="639.57" width="32.52" height="82.23"/><path class="cls-1" d="M219.06,361.75a3.5,3.5,0,0,1-3.43-2.79,25.47,25.47,0,0,1,49.87-10.37,3.5,3.5,0,0,1-6.85,1.43,18.47,18.47,0,0,0-36.16,7.52,3.49,3.49,0,0,1-3.43,4.21Z"/><path class="cls-1" d="M261.88,351.86a3.51,3.51,0,0,1-3.43-2.79,22.18,22.18,0,0,1,43.43-9,3.5,3.5,0,1,1-6.86,1.42,15.17,15.17,0,1,0-29.71,6.18,3.54,3.54,0,0,1-3.43,4.22Z"/><path class="cls-1" d="M778.79,499.62a3.82,3.82,0,0,1-.75-.08,3.5,3.5,0,0,1-2.67-4.17,18.47,18.47,0,0,0-36.1-7.84,3.5,3.5,0,1,1-6.84-1.49,25.47,25.47,0,0,1,49.78,10.82A3.51,3.51,0,0,1,778.79,499.62Z"/><path class="cls-1" d="M815.5,506.6a3.82,3.82,0,0,1-.75-.08,3.5,3.5,0,0,1-2.68-4.16,15.18,15.18,0,1,0-29.66-6.45,3.5,3.5,0,1,1-6.84-1.48,22.17,22.17,0,1,1,43.34,9.41A3.49,3.49,0,0,1,815.5,506.6Z"/><circle class="cls-2" cx="177.1" cy="716.58" r="25.87"/><circle class="cls-2" cx="920.32" cy="716.58" r="25.87"/><path class="cls-3" d="M957.16,765.4H923.82V742.45h-7V765.4h-58.4V589.77h5.06a5,5,0,0,0,5-5V565.42a5,5,0,0,0-5-5H584.77V330.06H527.5v-20.9a3.5,3.5,0,0,0-3.5-3.5H494.6V227.1a3.5,3.5,0,0,0-7,0v78.56H458.19a3.5,3.5,0,0,0-3.5,3.5v20.9H397.42v97.2H249.94a5,5,0,0,0-5,5V741.58H222.06a5,5,0,0,0-5,5V765.4H180.6V742.45h-7V765.4H110.19a7.5,7.5,0,1,0,0,15h847a7.5,7.5,0,0,0,0-15ZM461.69,312.66H520.5v13.9H461.69ZM848.42,765.4H727.63V589.77H848.42Zm-263.65-195H858.48v9.35H584.77Zm0,19.35H720.63V765.4H584.77V589.77ZM541.11,388.92v8.39H441.66v-8.39Zm0,305v8.39H441.66V693.9Zm0-50.83v8.39H441.66v-8.39Zm0-50.83v8.39H441.66v-8.39Zm0-50.83v8.39H441.66v-8.39Zm0-50.83V499H441.66v-8.39Zm-99.45-42.44v-8.39h99.45v8.39ZM254.94,437.26H392.42V741.58H254.94ZM227.06,751.58H420.29V765.4H227.06Z"/><path class="cls-3" d="M638.19,725.31h32.52a3.5,3.5,0,0,0,3.5-3.5V639.57a3.5,3.5,0,0,0-3.5-3.5H638.19a3.5,3.5,0,0,0-3.5,3.5v82.24A3.5,3.5,0,0,0,638.19,725.31Zm3.5-82.24h25.52v75.24H641.69Z"/><path class="cls-3" d="M772.52,725.31H805a3.5,3.5,0,0,0,3.5-3.5V639.57a3.5,3.5,0,0,0-3.5-3.5H772.52a3.5,3.5,0,0,0-3.5,3.5v82.24A3.5,3.5,0,0,0,772.52,725.31Zm3.5-82.24h25.51v75.24H776Z"/><path class="cls-3" d="M311.23,467.21H285.68a3.5,3.5,0,0,0-3.5,3.5v33.55a3.5,3.5,0,0,0,3.5,3.5h25.55a3.5,3.5,0,0,0,3.5-3.5V470.71A3.5,3.5,0,0,0,311.23,467.21Zm-3.5,33.55H289.18V474.21h18.55Z"/><path class="cls-3" d="M365.94,467.21H340.39a3.5,3.5,0,0,0-3.5,3.5v33.55a3.5,3.5,0,0,0,3.5,3.5h25.55a3.5,3.5,0,0,0,3.5-3.5V470.71A3.5,3.5,0,0,0,365.94,467.21Zm-3.5,33.55H343.89V474.21h18.55Z"/><path class="cls-3" d="M311.23,518.69H285.68a3.5,3.5,0,0,0-3.5,3.5v33.55a3.5,3.5,0,0,0,3.5,3.5h25.55a3.5,3.5,0,0,0,3.5-3.5V522.19A3.5,3.5,0,0,0,311.23,518.69Zm-3.5,33.55H289.18V525.69h18.55Z"/><path class="cls-3" d="M365.94,518.69H340.39a3.5,3.5,0,0,0-3.5,3.5v33.55a3.5,3.5,0,0,0,3.5,3.5h25.55a3.5,3.5,0,0,0,3.5-3.5V522.19A3.5,3.5,0,0,0,365.94,518.69Zm-3.5,33.55H343.89V525.69h18.55Z"/><path class="cls-3" d="M311.23,570.18H285.68a3.5,3.5,0,0,0-3.5,3.5v33.55a3.5,3.5,0,0,0,3.5,3.5h25.55a3.5,3.5,0,0,0,3.5-3.5V573.68A3.5,3.5,0,0,0,311.23,570.18Zm-3.5,33.55H289.18V577.18h18.55Z"/><path class="cls-3" d="M365.94,570.18H340.39a3.49,3.49,0,0,0-3.5,3.5v33.55a3.5,3.5,0,0,0,3.5,3.5h25.55a3.5,3.5,0,0,0,3.5-3.5V573.68A3.5,3.5,0,0,0,365.94,570.18Zm-3.5,33.55H343.89V577.18h18.55Z"/><path class="cls-3" d="M311.23,621.66H285.68a3.5,3.5,0,0,0-3.5,3.5v33.55a3.5,3.5,0,0,0,3.5,3.5h25.55a3.5,3.5,0,0,0,3.5-3.5V625.16A3.5,3.5,0,0,0,311.23,621.66Zm-3.5,33.55H289.18V628.66h18.55Z"/><path class="cls-3" d="M365.94,621.66H340.39a3.5,3.5,0,0,0-3.5,3.5v33.55a3.5,3.5,0,0,0,3.5,3.5h25.55a3.5,3.5,0,0,0,3.5-3.5V625.16A3.5,3.5,0,0,0,365.94,621.66Zm-3.5,33.55H343.89V628.66h18.55Z"/><path class="cls-3" d="M311.23,673.15H285.68a3.5,3.5,0,0,0-3.5,3.5v33.54a3.5,3.5,0,0,0,3.5,3.5h25.55a3.5,3.5,0,0,0,3.5-3.5V676.65A3.5,3.5,0,0,0,311.23,673.15Zm-3.5,33.54H289.18V680.15h18.55Z"/><path class="cls-3" d="M365.94,673.15H340.39a3.49,3.49,0,0,0-3.5,3.5v33.54a3.49,3.49,0,0,0,3.5,3.5h25.55a3.5,3.5,0,0,0,3.5-3.5V676.65A3.5,3.5,0,0,0,365.94,673.15Zm-3.5,33.54H343.89V680.15h18.55Z"/></g></svg>