<svg xmlns="http://www.w3.org/2000/svg" viewBox="0 0 1000 1000"><defs><style>.cls-1{fill:#66cb92;}.cls-2{fill:#0070ba;}</style></defs><g id="Grafik"><polygon class="cls-1" points="61.41 347.01 94.13 324.34 126.76 347.15 115.31 309.03 147.09 285.05 107.29 284.15 94.31 246.52 81.15 284.09 41.35 284.81 73.02 308.93 61.41 347.01"/><polygon class="cls-1" points="234.92 183.88 195.12 182.98 182.14 145.35 168.98 182.92 129.18 183.64 160.85 207.76 149.24 245.83 181.96 223.17 214.59 245.98 203.15 207.85 234.92 183.88"/><polygon class="cls-1" points="101.97 442.44 133.75 418.46 93.95 417.56 80.97 379.93 67.81 417.5 28.01 418.23 59.68 442.35 48.07 480.42 80.79 457.76 113.41 480.57 101.97 442.44"/><polygon class="cls-1" points="152.88 536.52 139.89 498.89 126.74 536.46 86.94 537.19 118.6 561.31 106.99 599.38 139.72 576.72 172.34 599.53 160.9 561.4 192.67 537.42 152.88 536.52"/><polygon class="cls-1" points="282.95 603.23 269.97 565.6 256.81 603.17 217.01 603.89 248.68 628.01 237.07 666.09 269.79 643.43 302.42 666.24 290.98 628.11 322.75 604.13 282.95 603.23"/><polygon class="cls-1" points="320.75 145.18 307.77 107.55 294.62 145.12 254.81 145.84 286.48 169.96 274.87 208.03 307.59 185.37 340.22 208.18 328.77 170.06 360.55 146.08 320.75 145.18"/><polygon class="cls-1" points="459.97 213.41 491.74 189.44 451.94 188.53 438.96 150.91 425.8 188.48 386 189.2 417.67 213.32 406.06 251.39 438.78 228.73 471.41 251.54 459.97 213.41"/><polygon class="cls-1" points="572.9 297.28 533.11 296.38 520.12 258.75 506.96 296.32 467.17 297.04 498.83 321.16 487.22 359.24 519.94 336.57 552.57 359.38 541.13 321.26 572.9 297.28"/><circle class="cls-1" cx="450.66" cy="782.53" r="28.66"/><circle class="cls-1" cx="450.66" cy="634.71" r="28.66"/><circle class="cls-1" cx="450.66" cy="486.89" r="28.66"/><rect class="cls-2" x="646.28" y="769.59" width="254.59" height="25.89" rx="12.21"/><rect class="cls-2" x="550.16" y="769.59" width="25.89" height="25.89" rx="12.21"/><rect class="cls-2" x="646.28" y="621.77" width="254.59" height="25.89" rx="12.21"/><rect class="cls-2" x="550.16" y="621.77" width="25.89" height="25.89" rx="12.21"/><path class="cls-2" d="M977,533V437.22a31.05,31.05,0,0,0-31-31H386.57a31.05,31.05,0,0,0-31,31V533a31,31,0,0,0,14.17,26,31,31,0,0,0-14.17,26v95.78a31,31,0,0,0,14.17,26,31,31,0,0,0-14.17,26v95.78a31.06,31.06,0,0,0,31,31h51.49v7.79a30,30,0,0,0,30,30h69.59a30,30,0,0,0,30-30v-7.79H764.89v7.79a30,30,0,0,0,30,30h69.59a30,30,0,0,0,30-30v-7.79H946a31.06,31.06,0,0,0,31-31V732.86a31,31,0,0,0-14.17-26,31,31,0,0,0,14.17-26V585a31,31,0,0,0-14.17-26A31,31,0,0,0,977,533ZM967,732.86v95.78a21,21,0,0,1-21,21H386.57a21,21,0,0,1-21-21V732.86a21,21,0,0,1,21-21H946A21,21,0,0,1,967,732.86ZM967,585v95.78a21,21,0,0,1-21,21H386.57a21,21,0,0,1-21-21V585a21,21,0,0,1,21-21H946A21,21,0,0,1,967,585Zm0-52a21,21,0,0,1-21,21H386.57a21,21,0,0,1-21-21V437.22a21,21,0,0,1,21-21H946a21,21,0,0,1,21,21Z"/><rect class="cls-2" x="646.28" y="473.95" width="254.59" height="25.89" rx="12.21"/><rect class="cls-2" x="550.16" y="473.95" width="25.89" height="25.89" rx="12.21"/></g></svg>