<svg xmlns="http://www.w3.org/2000/svg" viewBox="0 0 1000 1000"><defs><style>.cls-1{fill:#fff;}.cls-2{fill:#0070ba;}.cls-3{fill:#66cb92;}</style></defs><g id="Grafik"><rect class="cls-1" x="886.72" y="226.81" width="84.49" height="84.49"/><path class="cls-2" d="M971.21,316.3H886.72a5,5,0,0,1-5-5V226.81a5,5,0,0,1,5-5h84.49a5,5,0,0,1,5,5V311.3A5,5,0,0,1,971.21,316.3Zm-79.49-10h74.49V231.81H891.72Z"/><rect class="cls-1" x="886.72" y="469.14" width="84.49" height="84.49"/><path class="cls-2" d="M971.21,558.63H886.72a5,5,0,0,1-5-5V469.14a5,5,0,0,1,5-5h84.49a5,5,0,0,1,5,5v84.49A5,5,0,0,1,971.21,558.63Zm-79.49-10h74.49V474.14H891.72Z"/><rect class="cls-1" x="886.72" y="711.47" width="84.49" height="84.49"/><path class="cls-2" d="M971.21,801H886.72a5,5,0,0,1-5-5V711.47a5,5,0,0,1,5-5h84.49a5,5,0,0,1,5,5V796A5,5,0,0,1,971.21,801Zm-79.49-10h74.49V716.47H891.72Z"/><rect class="cls-1" x="28.79" y="226.81" width="84.49" height="84.49" transform="translate(142.07 538.11) rotate(-180)"/><path class="cls-2" d="M113.28,316.3H28.79a5,5,0,0,1-5-5V226.81a5,5,0,0,1,5-5h84.49a5,5,0,0,1,5,5V311.3A5,5,0,0,1,113.28,316.3Zm-79.49-10h74.49V231.81H33.79Z"/><rect class="cls-1" x="28.79" y="469.14" width="84.49" height="84.49" transform="translate(142.07 1022.77) rotate(-180)"/><path class="cls-2" d="M113.28,558.63H28.79a5,5,0,0,1-5-5V469.14a5,5,0,0,1,5-5h84.49a5,5,0,0,1,5,5v84.49A5,5,0,0,1,113.28,558.63Zm-79.49-10h74.49V474.14H33.79Z"/><rect class="cls-1" x="28.79" y="711.47" width="84.49" height="84.49" transform="translate(142.07 1507.43) rotate(-180)"/><path class="cls-2" d="M113.28,801H28.79a5,5,0,0,1-5-5V711.47a5,5,0,0,1,5-5h84.49a5,5,0,0,1,5,5V796A5,5,0,0,1,113.28,801ZM33.79,791h74.49V716.47H33.79Z"/><path class="cls-2" d="M676.7,377H323.3a15.3,15.3,0,0,0-15.3,15.3V621.61a15.3,15.3,0,0,0,15.3,15.3H676.7a15.3,15.3,0,0,0,15.3-15.3V392.26A15.3,15.3,0,0,0,676.7,377ZM522.18,516.59V562a21.86,21.86,0,0,1-43.71,0V517a44.89,44.89,0,1,1,43.71-.37Z"/><path class="cls-2" d="M643.51,351.23h-28.1a7,7,0,0,1-7-6.51,108.6,108.6,0,0,0-216.82,0,7,7,0,0,1-7,6.51h-28.1a7,7,0,0,1-7-7.29c3.82-79.73,69.88-143.41,150.53-143.41s146.71,63.68,150.53,143.41A7,7,0,0,1,643.51,351.23Z"/><path class="cls-3" d="M269.45,516.38a5,5,0,0,0,5-5.49,5.15,5.15,0,0,0-5.19-4.51H134.6a5,5,0,0,0-5,5h0a5,5,0,0,0,5,5Z"/><path class="cls-3" d="M182.88,452.16h86.36a5.15,5.15,0,0,0,5.19-4.51,5,5,0,0,0-5-5.49H187.88V269.05a5,5,0,0,0-5-5H134.6a5,5,0,0,0-5,5h0a5,5,0,0,0,5,5h43.28V447.16A5,5,0,0,0,182.88,452.16Z"/><path class="cls-3" d="M182.88,758.72a5,5,0,0,0,5-5V580.61h81.36a5.15,5.15,0,0,0,5.19-4.51,5,5,0,0,0-5-5.49H182.88a5,5,0,0,0-5,5V748.72H134.6a5,5,0,0,0-5,5h0a5,5,0,0,0,5,5Z"/><path class="cls-3" d="M730.55,506.38a5,5,0,0,0-5,5.5,5.14,5.14,0,0,0,5.19,4.5H865.4a5,5,0,0,0,5-5h0a5,5,0,0,0-5-5Z"/><path class="cls-3" d="M817.12,570.61H730.76a5.15,5.15,0,0,0-5.19,4.51,5,5,0,0,0,5,5.49h81.57V753.72a5,5,0,0,0,5,5H865.4a5,5,0,0,0,5-5h0a5,5,0,0,0-5-5H822.12V575.61A5,5,0,0,0,817.12,570.61Z"/><path class="cls-3" d="M817.12,264.05a5,5,0,0,0-5,5V442.16H730.76a5.15,5.15,0,0,0-5.19,4.51,5,5,0,0,0,5,5.49h86.57a5,5,0,0,0,5-5V274.05H865.4a5,5,0,0,0,5-5h0a5,5,0,0,0-5-5Z"/></g></svg>