<svg id="Grafik" xmlns="http://www.w3.org/2000/svg" viewBox="0 0 1000 1000"><defs><style>.Grafikstil,.cls-1{opacity:0.6;}.Grafikstil,.cls-2{fill:#fff;}.cls-3{fill:none;}</style></defs><g class="cls-1"><rect class="cls-2" x="195.01" y="530.43" width="176.1" height="66.73" rx="2.16"/><rect class="cls-2" x="195.01" y="530.43" width="176.1" height="66.73" rx="2.16"/></g><path class="cls-3" d="M119.38,451.56H344.76a7.28,7.28,0,0,0,4.29-1.39L395,416.8A7.29,7.29,0,0,0,395,405l-45.94-33.36a7.29,7.29,0,0,0-4.29-1.4H119.38a7.32,7.32,0,0,0-7.3,7.31v66.73A7.32,7.32,0,0,0,119.38,451.56Zm0-71.87a2.16,2.16,0,0,1,2.16-2.16h53.63a2.16,2.16,0,0,1,2.16,2.16V442.1a2.16,2.16,0,0,1-2.16,2.16H121.54a2.16,2.16,0,0,1-2.16-2.16Z"/><path class="cls-3" d="M187.71,530.43v66.73a7.3,7.3,0,0,0,7.3,7.3H532.6a7.25,7.25,0,0,0,4.29-1.39l46-33.37a7.31,7.31,0,0,0,0-11.82l-46-33.36a7.25,7.25,0,0,0-4.29-1.39H195A7.3,7.3,0,0,0,187.71,530.43Z"/><path class="cls-3" d="M266,683.33v66.73a7.3,7.3,0,0,0,7.3,7.3H760.16a7.25,7.25,0,0,0,4.29-1.39l45.95-33.36a7.31,7.31,0,0,0,0-11.82l-45.95-33.37a7.25,7.25,0,0,0-4.29-1.39H273.32A7.3,7.3,0,0,0,266,683.33Zm9.46,0H636.87a2.16,2.16,0,0,1,2.16,2.16V747.9a2.16,2.16,0,0,1-2.16,2.16H275.48a2.16,2.16,0,0,1-2.16-2.16V685.49A2.16,2.16,0,0,1,275.48,683.33Z"/><path class="cls-3" d="M36.21,842.84a20,20,0,0,0,20,20H947a20,20,0,0,0,20-20V262.13H36.21ZM768.57,671.76l45.94,33.36a14.3,14.3,0,0,1,0,23.15l-45.94,33.36a14.2,14.2,0,0,1-8.41,2.73H273.32a14.32,14.32,0,0,1-14.3-14.3V683.33a14.32,14.32,0,0,1,14.3-14.3H760.16A14.2,14.2,0,0,1,768.57,671.76ZM541,518.86l46,33.36a14.3,14.3,0,0,1,0,23.15l-46,33.36a14.15,14.15,0,0,1-8.4,2.73H195a14.32,14.32,0,0,1-14.3-14.3V530.43a14.31,14.31,0,0,1,14.3-14.3H532.6A14.17,14.17,0,0,1,541,518.86ZM105.08,377.53a14.32,14.32,0,0,1,14.3-14.31H344.76a14.24,14.24,0,0,1,8.4,2.73l45.95,33.37a14.3,14.3,0,0,1,0,23.15l-45.95,33.36a14.17,14.17,0,0,1-8.4,2.73H119.38a14.32,14.32,0,0,1-14.3-14.3Z"/><path class="cls-2" d="M119.38,458.56H344.76a14.17,14.17,0,0,0,8.4-2.73l45.95-33.36a14.3,14.3,0,0,0,0-23.15L353.16,366a14.24,14.24,0,0,0-8.4-2.73H119.38a14.32,14.32,0,0,0-14.3,14.31v66.73A14.32,14.32,0,0,0,119.38,458.56Zm-7.3-81a7.32,7.32,0,0,1,7.3-7.31H344.76a7.29,7.29,0,0,1,4.29,1.4L395,405a7.29,7.29,0,0,1,0,11.82l-45.94,33.37a7.28,7.28,0,0,1-4.29,1.39H119.38a7.32,7.32,0,0,1-7.3-7.3Z"/><path class="cls-2" d="M180.71,530.43v66.73a14.32,14.32,0,0,0,14.3,14.3H532.6a14.15,14.15,0,0,0,8.4-2.73l46-33.36a14.3,14.3,0,0,0,0-23.15l-46-33.36a14.17,14.17,0,0,0-8.4-2.73H195A14.31,14.31,0,0,0,180.71,530.43Zm356.18-5.91,46,33.36a7.31,7.31,0,0,1,0,11.82l-46,33.37a7.25,7.25,0,0,1-4.29,1.39H195a7.3,7.3,0,0,1-7.3-7.3V530.43a7.3,7.3,0,0,1,7.3-7.3H532.6A7.25,7.25,0,0,1,536.89,524.52Z"/><path class="cls-2" d="M259,683.33v66.73a14.32,14.32,0,0,0,14.3,14.3H760.16a14.2,14.2,0,0,0,8.41-2.73l45.94-33.36a14.3,14.3,0,0,0,0-23.15l-45.94-33.36a14.2,14.2,0,0,0-8.41-2.73H273.32A14.32,14.32,0,0,0,259,683.33Zm505.43-5.91,45.95,33.37a7.31,7.31,0,0,1,0,11.82L764.45,756a7.25,7.25,0,0,1-4.29,1.39H273.32a7.3,7.3,0,0,1-7.3-7.3V683.33a7.3,7.3,0,0,1,7.3-7.3H760.16A7.25,7.25,0,0,1,764.45,677.42Z"/><rect class="cls-2" x="119.38" y="377.53" width="57.95" height="66.73" rx="2.16"/><rect class="cls-2" x="273.32" y="683.33" width="365.71" height="66.73" rx="2.16"/><path class="cls-2" d="M947,184.69H56.21a30,30,0,0,0-30,30V842.84a30,30,0,0,0,30,30H947a30,30,0,0,0,30-30V214.69A30,30,0,0,0,947,184.69Zm-794.3,28.57a12.1,12.1,0,1,1-12.11,12.1A12.12,12.12,0,0,1,152.67,213.26Zm-37.82,0a12.1,12.1,0,1,1-12.1,12.1A12.12,12.12,0,0,1,114.85,213.26Zm-37.81,0a12.1,12.1,0,1,1-12.1,12.1A12.12,12.12,0,0,1,77,213.26ZM967,842.84a20,20,0,0,1-20,20H56.21a20,20,0,0,1-20-20V262.13H967Z"/><path class="Grafikstil" d="M813.48,410.91l44.7-39.36a5,5,0,0,0-3.31-8.75H701V351.91a5,5,0,0,0-10,0V565a5,5,0,0,0,10,0V459H854.87a5,5,0,0,0,3.31-8.75Z"/></svg>