<svg xmlns="http://www.w3.org/2000/svg" viewBox="0 0 1000 1000"><defs><style>.cls-1{fill:#0070ba;}.cls-2{fill:#66cb92;}</style></defs><g id="Grafik"><path class="cls-1" d="M945.38,155.92H54.62a30,30,0,0,0-30,30V814.08a30,30,0,0,0,30,30H945.38a30,30,0,0,0,30-30V185.92A30,30,0,0,0,945.38,155.92ZM151.07,184.49a12.1,12.1,0,1,1-12.1,12.1A12.12,12.12,0,0,1,151.07,184.49Zm-37.81,0a12.1,12.1,0,1,1-12.1,12.1A12.11,12.11,0,0,1,113.26,184.49Zm-37.81,0a12.1,12.1,0,1,1-12.1,12.1A12.12,12.12,0,0,1,75.45,184.49ZM965.38,814.08a20,20,0,0,1-20,20H54.62a20,20,0,0,1-20-20V233.36H965.38Z"/><path class="cls-1" d="M691.13,487.8H308.87a15.3,15.3,0,0,0-15.3,15.3V752a15.3,15.3,0,0,0,15.3,15.3H691.13a15.3,15.3,0,0,0,15.3-15.3V503.1A15.3,15.3,0,0,0,691.13,487.8ZM523.84,637.93v48.84a23.5,23.5,0,1,1-47,0V638.33a48.26,48.26,0,1,1,47-.4Z"/><path class="cls-2" d="M654.3,460.13H624.09a7.51,7.51,0,0,1-7.53-7,116.77,116.77,0,0,0-233.12,0,7.51,7.51,0,0,1-7.53,7H345.7a7.53,7.53,0,0,1-7.55-7.83c4.1-85.73,75.13-154.2,161.85-154.2s157.75,68.47,161.85,154.2A7.53,7.53,0,0,1,654.3,460.13Z"/></g></svg>