<svg xmlns="http://www.w3.org/2000/svg" viewBox="0 0 1000 1000"><defs><style>.cls-1{fill:#66cb92;}.cls-2{fill:#0070ba;}</style></defs><g id="Grafik"><path class="cls-1" d="M920.46,205.38H688.59l-21.5-20.88H540v20.88h-18.5a25,25,0,0,0-25,25v55.74H811.67a55.06,55.06,0,0,1,55,55V492.48h53.79a25,25,0,0,0,25-25V230.38A25,25,0,0,0,920.46,205.38Z"/><path class="cls-2" d="M811.67,820.5H79.54a30,30,0,0,1-30-30V341.12a30,30,0,0,1,30-30H126.1V279.58a5,5,0,0,1,5-5h224a5,5,0,0,1,3.43,1.36l37.31,35.18H811.67a30,30,0,0,1,30,30V790.5A30,30,0,0,1,811.67,820.5ZM79.54,321.12a20,20,0,0,0-20,20V790.5a20,20,0,0,0,20,20H811.67a20,20,0,0,0,20-20V341.12a20,20,0,0,0-20-20H393.88a5,5,0,0,1-3.43-1.36l-37.31-35.18h-217v31.54a5,5,0,0,1-5,5Z"/><path class="cls-2" d="M567.13,525.66h-243A15.3,15.3,0,0,0,308.78,541V695.61a15.3,15.3,0,0,0,15.3,15.3H567.13a15.3,15.3,0,0,0,15.3-15.3V541A15.3,15.3,0,0,0,567.13,525.66Zm-105.72,99.5v32.38a15.58,15.58,0,0,1-31.15,0V625.43a32,32,0,1,1,31.15-.27Z"/><path class="cls-2" d="M547.88,507.32h-20a5,5,0,0,1-5-4.64,77.4,77.4,0,0,0-154.52,0,5,5,0,0,1-5,4.64h-20a5,5,0,0,1-5-5.19,107.4,107.4,0,0,1,214.55,0A5,5,0,0,1,547.88,507.32Z"/></g></svg>