<svg xmlns="http://www.w3.org/2000/svg" width="175.629" height="34.668"><g fill="#FFF"><path d="M51.768 1.335c-3.565 0-6.081 2.446-6.081 6.116v12.79c0 3.671 2.516 6.116 6.081 6.116 3.6 0 6.151-2.445 6.151-6.116V7.451c0-3.67-2.551-6.116-6.151-6.116zm3.655 19.046c0 2.238-1.524 3.811-3.655 3.811-2.097 0-3.585-1.571-3.585-3.811V7.346c0-2.271 1.488-3.845 3.585-3.845 2.131 0 3.655 1.574 3.655 3.845v13.035zM66.842 8.115c-1.433 0-2.679.594-3.483 1.712-.105.104-.198.034-.198-.07V8.744c0-.209-.093-.434-.303-.434h-1.782c-.21 0-.412.224-.412.434V32.51c0 .208.201.266.412.266h1.782c.21 0 .303-.058.303-.266v-7.761c0-.103.093-.173.198-.067.804 1.117 2.039 1.676 3.472 1.676 2.831 0 4.618-2.166 4.723-5.241.035-1.293.038-2.48.038-3.773s.001-2.587-.033-3.88c-.14-3.112-1.921-5.349-4.717-5.349zm2.291 12.58c.035 2.099-1.256 3.494-3.038 3.494-1.678 0-2.934-1.396-2.934-3.494v-6.919c0-2.097 1.266-3.495 2.943-3.495 1.818 0 3.048 1.432 3.048 3.495v3.459c.001.911.015 2.24-.019 3.46zm9.987-12.58c-3.32 0-5.474 2.201-5.474 5.346v7.549c0 3.215 2.155 5.348 5.475 5.348 3.076 0 5.009-1.746 5.394-4.474.035-.21-.1-.384-.309-.384l-1.745-.072c-.209 0-.312.107-.383.315-.314 1.434-1.413 2.446-2.95 2.446-1.747 0-2.985-1.361-2.985-3.318v-2.553c0-.068.1-.024.171-.024h7.968c.209 0 .349-.255.349-.465V13.46c-.001-3.144-2.121-5.345-5.511-5.345zm3.013 7.863c0 .07-.019.071-.089.071h-5.731c-.071 0-.171-.001-.171-.071v-2.341c0-1.992 1.213-3.355 2.96-3.355 1.818 0 3.031 1.363 3.031 3.355v2.341zm11.032-7.829c-1.397 0-2.718.525-3.625 1.783-.069.105-.166.07-.166-.035V8.743c0-.209-.131-.433-.34-.433h-1.782c-.21 0-.375.224-.375.433v16.985c0 .211.165.307.375.307h1.782c.209 0 .34-.096.34-.307V14.091c0-2.342 1.122-3.774 2.976-3.774 1.782 0 2.766 1.328 2.766 3.6v11.812c0 .211.211.308.42.308h1.783c.209 0 .293-.097.293-.308V13.706c-.003-3.495-1.58-5.557-4.447-5.557zm13.623-6.579h-5.767c-.211 0-.416.148-.416.359v23.799c0 .211.205.307.416.307h1.781c.211 0 .299-.096.299-.307V15.174c0-.07.121-.124.191-.124h3.6c3.354 0 5.592-2.668 5.592-6.688 0-4.053-2.273-6.792-5.696-6.792zm-.315 11.484h-3.18c-.07 0-.191-.116-.191-.187V3.886c0-.07.121-.069.191-.069h3.18c2.096 0 3.531 1.805 3.531 4.636s-1.436 4.601-3.531 4.601zm15.377-4.45c-.35-.209-.805-.385-1.502-.385-1.678 0-2.738 1.083-3.332 2.656-.068.105-.184.105-.184-.035V8.744c0-.209-.119-.434-.33-.434h-1.781c-.211 0-.385.224-.385.434v16.984c0 .211.174.307.385.307h1.781c.211 0 .33-.096.33-.307V15.245c0-2.377 1.199-4.229 2.875-4.334.559-.105 1.09-.035 1.473.14.246.069.422.035.457-.21l.387-1.782c.035-.176.001-.35-.174-.455zm11.957 4.857c0-3.145-2.279-5.346-5.635-5.346-3.354 0-5.6 2.201-5.6 5.346v7.549c0 3.215 2.246 5.348 5.6 5.348 3.355 0 5.635-2.133 5.635-5.348v-7.549zm-2.496 7.409c0 1.957-1.354 3.319-3.139 3.319-1.781 0-3.102-1.362-3.102-3.319v-7.234c0-1.991 1.32-3.354 3.102-3.354 1.783 0 3.139 1.363 3.139 3.354v7.234zm6.964-12.559h-1.782c-.209 0-.438.224-.438.433v18.873c0 2.132-.746 3.494-2.738 3.564-.209 0-.256.139-.256.35v1.468c0 .209.055.349.264.349 4.369 0 5.227-2.236 5.227-5.729V8.743c-.001-.208-.068-.432-.277-.432zm-.907-6.731c-.91 0-1.714.734-1.714 1.817 0 1.049.699 1.818 1.714 1.818 1.047 0 1.745-.769 1.745-1.818 0-1.084-.802-1.817-1.745-1.817zm9.153 6.535c-3.319 0-5.475 2.201-5.475 5.346v7.549c0 3.215 2.16 5.348 5.48 5.348 3.076 0 5.014-1.746 5.396-4.474.035-.21-.098-.384-.305-.384l-1.744-.072c-.211 0-.312.107-.383.315-.313 1.434-1.421 2.446-2.957 2.446-1.748 0-2.992-1.361-2.992-3.318v-2.553c0-.068.112-.024.185-.024h7.969c.211 0 .334-.255.334-.465V13.46c0-3.144-2.118-5.345-5.508-5.345zm3.013 7.863c0 .07-.005.071-.074.071h-5.731c-.07 0-.185-.001-.185-.071v-2.341c0-1.992 1.213-3.355 2.959-3.355 1.817 0 3.031 1.363 3.031 3.355v2.341zm9.95-7.863c-3.319 0-5.457 2.236-5.457 5.346v7.549c0 3.215 2.138 5.348 5.457 5.348 3.355 0 5.527-2.133 5.527-4.856v-.386c0-.21-.193-.35-.402-.35l-1.764-.035c-.211 0-.33.142-.33.35v.246c0 1.501-1.213 2.863-3.031 2.863-1.748 0-2.961-1.362-2.961-3.354v-7.199c0-1.991 1.213-3.354 2.961-3.354 1.818 0 3.031 1.363 3.031 2.865v.28c0 .175.094.314.303.314l1.812-.07c.211 0 .381-.139.381-.35v-.35c.001-2.62-2.171-4.857-5.527-4.857zm10.595 2.192h2.655c.209 0 .267-.201.267-.41V8.743c0-.209-.058-.433-.267-.433h-2.655c-.07 0-.074.014-.074-.056V4.34c0-.209-.205-.274-.416-.274h-1.746c-.211 0-.334.065-.334.274v3.915c0 .07-.086.056-.155.056h-1.363c-.209 0-.229.224-.229.433v1.154c0 .209.021.41.229.41h1.363c.069 0 .155.009.155.079v11.429c0 3.528 1.697 4.221 4.179 4.221h.873c.211 0 .44-.098.44-.307v-1.504c0-.209-.229-.438-.44-.438h-.349c-1.469 0-2.209-.47-2.209-2.706V10.386c.001-.07.005-.079.076-.079zM20.224 25.535h.004c-.001.021-.004.041-.004.061 0 1 .838 1.812 1.872 1.812 1.035 0 1.873-.812 1.873-1.812l-.003-.061h.003v-4.493h-3.745v4.493z"/><path d="M28.961 1.32h-2.496a6.24 6.24 0 0 0-6.241 6.241v7.49H9.24A6.24 6.24 0 0 0 3 21.291v4.993a6.24 6.24 0 0 0 6.24 6.239h2.497a6.241 6.241 0 0 0 6.241-6.239v-4.993c0-.083-.003-.166-.006-.249h-3.739v5.242a2.5 2.5 0 0 1-2.496 2.496H9.24a2.5 2.5 0 0 1-2.496-2.496v-4.993a2.5 2.5 0 0 1 2.496-2.496h19.722a6.242 6.242 0 0 0 6.242-6.241V7.562a6.244 6.244 0 0 0-6.243-6.242zm2.497 11.234a2.5 2.5 0 0 1-2.497 2.497h-4.993V7.562a2.5 2.5 0 0 1 2.497-2.497h2.496a2.5 2.5 0 0 1 2.497 2.497v4.992z"/></g></svg>