<svg xmlns="http://www.w3.org/2000/svg" viewBox="0 0 1000 1000"><defs><style>.cls-1{fill:#66cb92;}.cls-2{fill:#0070ba;}</style></defs><g id="Grafik"><path class="cls-1" d="M232.5,616.89h36a25,25,0,0,1,25,25V764a0,0,0,0,1,0,0h-86a0,0,0,0,1,0,0V641.89A25,25,0,0,1,232.5,616.89Z"/><path class="cls-1" d="M356.58,540.25h36a25,25,0,0,1,25,25V764a0,0,0,0,1,0,0h-86a0,0,0,0,1,0,0V565.25A25,25,0,0,1,356.58,540.25Z"/><path class="cls-2" d="M480.66,652.1h36a25,25,0,0,1,25,25V764a0,0,0,0,1,0,0h-86a0,0,0,0,1,0,0V677.1A25,25,0,0,1,480.66,652.1Z"/><path class="cls-2" d="M604.75,459.06h36a25,25,0,0,1,25,25V764a0,0,0,0,1,0,0h-86a0,0,0,0,1,0,0V484.06A25,25,0,0,1,604.75,459.06Z"/><path class="cls-2" d="M703.83,685.41a3.5,3.5,0,0,1-3.5-3.5v-92a29.43,29.43,0,0,1,29.4-29.4h34.2a29.43,29.43,0,0,1,29.4,29.4v38.89a3.5,3.5,0,0,1-7,0V589.89a22.42,22.42,0,0,0-22.4-22.4h-34.2a22.42,22.42,0,0,0-22.4,22.4v92A3.5,3.5,0,0,1,703.83,685.41Z"/><path class="cls-2" d="M837.27,349.72H471.92a5,5,0,0,0,0,10H837.27a20.11,20.11,0,0,1,20.09,20.09V622.09a5,5,0,0,0,10,0V379.81A30.13,30.13,0,0,0,837.27,349.72Z"/><path class="cls-2" d="M655.64,800.1H132.8V523.52a5,5,0,0,0-10,0V800.1H29.62a5,5,0,0,0-5,5v8.56A36.36,36.36,0,0,0,60.94,850H657.55a5,5,0,0,0,5-5.24l-1.9-39.88A5,5,0,0,0,655.64,800.1ZM577,830H405.46a5,5,0,0,1,0-10H577a5,5,0,0,1,0,10Z"/><path class="cls-2" d="M233.24,94.2c-117,0-212.16,95.18-212.16,212.17s95.17,212.17,212.16,212.17,212.17-95.18,212.17-212.17S350.23,94.2,233.24,94.2Zm0,414.34c-111.47,0-202.16-90.7-202.16-202.17S121.77,104.2,233.24,104.2s202.17,90.69,202.17,202.17S344.72,508.54,233.24,508.54Z"/><path class="cls-2" d="M353.2,179.35l-102.06,102a30.56,30.56,0,0,0-12.9-5.36V196.88a5,5,0,0,0-10,0V276a30.79,30.79,0,1,0,30,12.43L360.27,186.42a5,5,0,1,0-7.07-7.07Zm-120,147.76A20.74,20.74,0,1,1,254,306.37,20.76,20.76,0,0,1,233.24,327.11Z"/><path class="cls-2" d="M233.24,157.18a3.5,3.5,0,0,0,3.5-3.5V127.5a3.5,3.5,0,0,0-7,0v26.18A3.5,3.5,0,0,0,233.24,157.18Z"/><path class="cls-2" d="M233.24,455.56a3.5,3.5,0,0,0-3.5,3.5v26.18a3.5,3.5,0,0,0,7,0V459.06A3.49,3.49,0,0,0,233.24,455.56Z"/><path class="cls-2" d="M412.12,302.87H385.93a3.5,3.5,0,1,0,0,7h26.19a3.5,3.5,0,0,0,0-7Z"/><path class="cls-2" d="M80.56,302.87H54.37a3.5,3.5,0,0,0,0,7H80.56a3.5,3.5,0,0,0,0-7Z"/><path class="cls-2" d="M193.36,87a225.21,225.21,0,0,1,79.77,0,5.32,5.32,0,0,0,6.28-5.23V71.88a28.52,28.52,0,0,0-28.52-28.53H215.6a28.52,28.52,0,0,0-28.52,28.53v9.93A5.32,5.32,0,0,0,193.36,87Z"/><path class="cls-2" d="M368.51,129.2a225.52,225.52,0,0,1,41.91,41.9,5.31,5.31,0,0,0,8,.54l.79-.79a28.54,28.54,0,0,0,0-40.31l-10.12-10.12a28.36,28.36,0,0,0-21.17-8.33,29.33,29.33,0,0,0-19.56,8.75l-.36.37A5.32,5.32,0,0,0,368.51,129.2Z"/><path class="cls-2" d="M48.45,171.15a5.31,5.31,0,0,0,8-.52,225.61,225.61,0,0,1,42-41.79,5.33,5.33,0,0,0,.54-8,29.28,29.28,0,0,0-19.55-8.75,28.4,28.4,0,0,0-21.18,8.33L48.15,130.54a28.51,28.51,0,0,0,0,40.31Z"/><path class="cls-1" d="M837.55,649.69A148.37,148.37,0,1,0,985.92,798.06,148.37,148.37,0,0,0,837.55,649.69Zm37.3,202.9a42.84,42.84,0,0,1-24.66,12.63v23.24H831.84V866a56.73,56.73,0,0,1-24.46-6.73A67.77,67.77,0,0,1,789,845.45L804.12,823a71.56,71.56,0,0,0,13.25,10.6,34.68,34.68,0,0,0,19,5.5c4.48,0,9.58-.81,13.66-4.28a13,13,0,0,0,4.89-10.39c0-4.89-2.24-8.36-6.12-11-3.26-2.24-6.72-3.26-14.06-6.11l-7.14-2.86c-7.13-2.85-14.47-6.32-20.58-12.43-6.32-6.53-9.18-13.25-9.18-22.43,0-12,4.49-23,11.62-30.16a41.89,41.89,0,0,1,22.42-11.21V707.66h18.35v20.59c5.91.4,18.35,2.44,31,13L867.52,763.1c-6.12-5.5-13.66-9.58-22.22-9.58-5.71,0-10.19,1.43-12.84,3.87a11.84,11.84,0,0,0-4.08,8.57,9.78,9.78,0,0,0,3.87,7.95c3.26,2.85,8.16,4.28,13.66,6.72l11.41,4.89c6.94,3.06,13.87,6.32,19.17,11.62,6.72,6.93,9.58,15.29,9.58,25.08C886.07,835.06,881.38,845.66,874.85,852.59Z"/></g></svg>